<svg xmlns="http://www.w3.org/2000/svg" width="720" height="460" viewBox="0 0 720 460">
  <defs>
    <style>
      @import url('https://fonts.googleapis.com/css2?family=Inter:wght@400;500;600&amp;display=swap');
      text { font-family: 'Inter', 'Cantarell', sans-serif; }
    </style>
    <filter id="shadow" x="-2%" y="-2%" width="104%" height="108%">
      <feDropShadow dx="0" dy="1" stdDeviation="2" flood-opacity="0.1"/>
    </filter>
  </defs>

  <rect width="720" height="460" fill="#fafafa" rx="16"/>

  <text x="20" y="35" font-size="15" font-weight="600" fill="#1e1e1e" opacity="0.6">PROPOSAL C-LITE - ActionRow with fixed suffix columns</text>

  <rect x="20" y="50" width="680" height="380" rx="12" fill="#ffffff" filter="url(#shadow)" stroke="#e0e0e0" stroke-width="0.5"/>

  <text x="300" y="70" text-anchor="middle" font-size="9" fill="#cccccc" font-weight="500">CONTENT</text>
  <text x="600" y="70" text-anchor="middle" font-size="9" fill="#cccccc" font-weight="500">FIXED SUFFIX BOX</text>

  <line x1="550" y1="55" x2="550" y2="425" stroke="#f5f5f5" stroke-width="1" stroke-dasharray="4 4"/>

  <g transform="translate(20, 80)">
    <rect x="0" y="0" width="680" height="76" fill="#ffffff"/>

    <circle cx="32" cy="38" r="12" fill="#e66100" opacity="0.15"/>
    <text x="32" y="42" text-anchor="middle" font-size="11" font-weight="600" fill="#e66100">C</text>

    <text x="56" y="28" font-size="14" font-weight="500" fill="#1e1e1e">Redesign SessionRow to show first prompt preview...</text>
    <text x="56" y="50" font-size="12" fill="#888888">sessions-chronicle | 8 messages</text>

    <rect x="550" y="16" width="120" height="44" rx="8" fill="#f8f8f8" stroke="#efefef"/>
    <text x="587" y="42" text-anchor="middle" font-size="11" fill="#999999">4d ago</text>

    <rect x="610" y="22" width="32" height="32" rx="8" fill="#f0f0f0"/>
    <text x="626" y="42" text-anchor="middle" font-size="14" fill="#666666">R</text>

    <text x="658" y="42" text-anchor="middle" font-size="16" fill="#cccccc">&gt;</text>

    <line x1="56" y1="75" x2="660" y2="75" stroke="#f0f0f0" stroke-width="1"/>
  </g>

  <g transform="translate(20, 156)">
    <rect x="0" y="0" width="680" height="76" fill="#ffffff"/>

    <circle cx="32" cy="38" r="12" fill="#26a269" opacity="0.15"/>
    <text x="32" y="42" text-anchor="middle" font-size="11" font-weight="600" fill="#26a269">X</text>

    <text x="56" y="28" font-size="14" font-weight="500" fill="#1e1e1e">Fix auth refresh 403 after token rotation...</text>
    <text x="56" y="50" font-size="12" fill="#888888">my-webapp | 3 messages</text>

    <rect x="550" y="16" width="120" height="44" rx="8" fill="#f8f8f8" stroke="#efefef"/>
    <text x="587" y="42" text-anchor="middle" font-size="11" fill="#999999">Jan 18</text>

    <rect x="610" y="22" width="32" height="32" rx="8" fill="#f0f0f0"/>
    <text x="626" y="42" text-anchor="middle" font-size="14" fill="#666666">R</text>

    <text x="658" y="42" text-anchor="middle" font-size="16" fill="#cccccc">&gt;</text>

    <line x1="56" y1="75" x2="660" y2="75" stroke="#f0f0f0" stroke-width="1"/>
  </g>

  <g transform="translate(20, 232)">
    <rect x="0" y="0" width="680" height="76" fill="#ffffff"/>

    <circle cx="32" cy="38" r="12" fill="#3584e4" opacity="0.15"/>
    <text x="32" y="42" text-anchor="middle" font-size="11" font-weight="600" fill="#3584e4">O</text>

    <text x="56" y="28" font-size="14" font-weight="500" fill="#1e1e1e">Write focused tests for database query module...</text>
    <text x="56" y="50" font-size="12" fill="#888888">project | 2 messages</text>

    <rect x="550" y="16" width="120" height="44" rx="8" fill="#f8f8f8" stroke="#efefef"/>
    <text x="587" y="42" text-anchor="middle" font-size="11" fill="#999999">Jan 10</text>

    <rect x="610" y="22" width="32" height="32" rx="8" fill="#f0f0f0"/>
    <text x="626" y="42" text-anchor="middle" font-size="14" fill="#666666">R</text>

    <text x="658" y="42" text-anchor="middle" font-size="16" fill="#cccccc">&gt;</text>

    <line x1="56" y1="75" x2="660" y2="75" stroke="#f0f0f0" stroke-width="1"/>
  </g>

  <g transform="translate(20, 308)">
    <rect x="0" y="0" width="680" height="76" fill="#ffffff"/>

    <circle cx="32" cy="38" r="12" fill="#1c71d8" opacity="0.15"/>
    <text x="32" y="42" text-anchor="middle" font-size="11" font-weight="600" fill="#1c71d8">V</text>

    <text x="56" y="28" font-size="14" font-weight="500" fill="#1e1e1e">Refactor API endpoints with async handlers...</text>
    <text x="56" y="50" font-size="12" fill="#888888">alpha | 2 messages</text>

    <rect x="550" y="16" width="120" height="44" rx="8" fill="#f8f8f8" stroke="#efefef"/>
    <text x="587" y="42" text-anchor="middle" font-size="11" fill="#999999">Jan 01</text>

    <rect x="610" y="22" width="32" height="32" rx="8" fill="#f0f0f0"/>
    <text x="626" y="42" text-anchor="middle" font-size="14" fill="#666666">R</text>

    <text x="658" y="42" text-anchor="middle" font-size="16" fill="#cccccc">&gt;</text>
  </g>

  <text x="360" y="450" text-anchor="middle" font-size="11" fill="#999999">Keeps AdwActionRow semantics while aligning time, resume, and chevron in one fixed suffix box</text>
</svg>
