<svg xmlns="http://www.w3.org/2000/svg" width="1120" height="760" viewBox="0 0 1120 760" role="img" aria-labelledby="title desc"><title id="title">B · Missing Sources — dedicated destination</title><desc id="desc">A consistent place to inspect retained sessions across AI assistants.</desc><g font-family="Cantarell, DejaVu Sans, sans-serif"><rect x="0" y="0" width="1120" height="760" rx="0" fill="#e5e5e9" stroke="none"/><text x="30" y="37" font-size="22" fill="#303036" font-weight="700">B · Missing Sources — dedicated destination</text><text x="30" y="62" font-size="13" fill="#55555e" font-weight="400">A consistent place to inspect retained sessions across AI assistants.</text><rect x="24" y="84" width="1072" height="606" rx="14" fill="#fafafa" stroke="none"/><rect x="24" y="84" width="1072" height="54" rx="14" fill="#ebebed" stroke="none"/><text x="53" y="118" font-size="23" fill="#303036" font-weight="400">⌕</text><rect x="92" y="94" width="80" height="34" rx="8" fill="#eeeeef" stroke="none"/><text x="104" y="116" font-size="13" fill="#303036" font-weight="600">Date</text><rect x="181" y="94" width="104" height="34" rx="8" fill="#eeeeef" stroke="none"/><text x="193" y="116" font-size="13" fill="#303036" font-weight="600">Recent</text><text x="475" y="117" font-size="16" fill="#303036" font-weight="700">Sessions</text><text x="602" y="117" font-size="16" fill="#65656b" font-weight="400">Analytics</text><text x="1023" y="117" font-size="20" fill="#303036" font-weight="400">☰    ×</text><rect x="24" y="138" width="226" height="552" rx="0" fill="#f0f0f2" stroke="none"/><rect x="42" y="157" width="18" height="18" rx="5" fill="#3584e4" stroke="none"/><text x="45" y="171" font-size="13" fill="white" font-weight="400">✓</text><text x="72" y="173" font-size="14" fill="#303036" font-weight="400">Claude Code</text><rect x="42" y="192" width="18" height="18" rx="5" fill="#3584e4" stroke="none"/><text x="45" y="206" font-size="13" fill="white" font-weight="400">✓</text><text x="72" y="208" font-size="14" fill="#303036" font-weight="400">OpenCode</text><rect x="42" y="227" width="18" height="18" rx="5" fill="#3584e4" stroke="none"/><text x="45" y="241" font-size="13" fill="white" font-weight="400">✓</text><text x="72" y="243" font-size="14" fill="#303036" font-weight="400">Codex</text><rect x="42" y="262" width="18" height="18" rx="5" fill="#3584e4" stroke="none"/><text x="45" y="276" font-size="13" fill="white" font-weight="400">✓</text><text x="72" y="278" font-size="14" fill="#303036" font-weight="400">Mistral Vibe</text><rect x="42" y="297" width="18" height="18" rx="5" fill="#3584e4" stroke="none"/><text x="45" y="311" font-size="13" fill="white" font-weight="400">✓</text><text x="72" y="313" font-size="14" fill="#303036" font-weight="400">Kimi Code</text><text x="48" y="388" font-size="14" fill="#303036" font-weight="400">All Sessions</text><text x="48" y="429" font-size="14" fill="#303036" font-weight="400">Pinned</text><text x="48" y="514" font-size="14" fill="#303036" font-weight="400">sessions-chronicle</text><text x="48" y="571" font-size="14" fill="#303036" font-weight="400">website</text><rect x="35" y="447" width="202" height="39" rx="8" fill="#dceafa" stroke="none"/><text x="48" y="472" font-size="14" fill="#174b85" font-weight="600">Missing Sources</text><text x="208" y="472" font-size="14" fill="#174b85" font-weight="400">3</text><text x="277" y="176" font-size="23" fill="#303036" font-weight="700">Missing Sources</text><text x="278" y="203" font-size="13" fill="#62626b" font-weight="400">3 sessions · all projects · all AI assistants</text><rect x="913" y="157" width="159" height="34" rx="8" fill="#eeeeef" stroke="none"/><text x="925" y="179" font-size="13" fill="#303036" font-weight="600">Indexing Status</text><text x="276" y="259" font-size="20" fill="#65656b" font-weight="400">•</text><text x="310" y="256" font-size="16" fill="#303036" font-weight="600">Investigate parser regression</text><text x="310" y="279" font-size="12" fill="#62626b" font-weight="400">Claude Code · sessions-chronicle · detected 6 Sep, 09:42</text><text x="1055" y="263" font-size="24" fill="#303036" font-weight="400">›</text><rect x="310" y="292" width="154" height="24" rx="5" fill="#ece9e1" stroke="none"/><text x="319" y="309" font-size="12" fill="#615135" font-weight="600">Source missing</text><path d="M270 329H1074" stroke="#dedee2"/><text x="276" y="369" font-size="20" fill="#65656b" font-weight="400">•</text><text x="310" y="366" font-size="16" fill="#303036" font-weight="600">Review source discovery</text><text x="310" y="389" font-size="12" fill="#62626b" font-weight="400">OpenCode · sessions-chronicle · detected 6 Sep, 09:42</text><text x="1055" y="373" font-size="24" fill="#303036" font-weight="400">›</text><rect x="310" y="402" width="154" height="24" rx="5" fill="#ece9e1" stroke="none"/><text x="319" y="419" font-size="12" fill="#615135" font-weight="600">Source missing</text><path d="M270 439H1074" stroke="#dedee2"/><text x="276" y="479" font-size="20" fill="#65656b" font-weight="400">•</text><text x="310" y="476" font-size="16" fill="#303036" font-weight="600">Update the landing page</text><text x="310" y="499" font-size="12" fill="#62626b" font-weight="400">Kimi Code · website · detected 5 Sep, 18:10</text><text x="1055" y="483" font-size="24" fill="#303036" font-weight="400">›</text><rect x="310" y="512" width="154" height="24" rx="5" fill="#ece9e1" stroke="none"/><text x="319" y="529" font-size="12" fill="#615135" font-weight="600">Source missing</text><path d="M270 549H1074" stroke="#dedee2"/><text x="278" y="624" font-size="13" fill="#62626b" font-weight="400">Select a session to read retained content and source details.</text><text x="32" y="722" font-size="13" fill="#55555e" font-weight="400">The entry counts missing top-level sessions. AI assistant and project filters still apply.</text></g></svg>