<?xml version="1.0" encoding="UTF-8"?>
<svg height="128px" viewBox="0 0 128 128" width="128px" xmlns="http://www.w3.org/2000/svg" xmlns:xlink="http://www.w3.org/1999/xlink">
    <defs>
        <filter id="a" height="100%" width="100%" x="0%" y="0%">
            <feColorMatrix color-interpolation-filters="sRGB" values="0 0 0 0 1 0 0 0 0 1 0 0 0 0 1 0 0 0 1 0"/>
        </filter>
        <mask id="b">
            <g filter="url(#a)">
                <rect fill-opacity="0.9" height="153.6" width="153.6" x="-12.8" y="-12.8"/>
            </g>
        </mask>
        <clipPath id="c">
            <path d="m 34 14 h 70 v 78 h -70 z m 0 0"/>
        </clipPath>
        <clipPath id="d">
            <path d="m 44 14 h 50 c 5.523438 0 10 4.476562 10 10 v 58 c 0 5.523438 -4.476562 10 -10 10 h -50 c -5.523438 0 -10 -4.476562 -10 -10 v -58 c 0 -5.523438 4.476562 -10 10 -10 z m 0 0"/>
        </clipPath>
        <mask id="e">
            <g filter="url(#a)">
                <rect fill-opacity="0.05" height="153.6" width="153.6" x="-12.8" y="-12.8"/>
            </g>
        </mask>
        <mask id="f">
            <g filter="url(#a)">
                <rect fill-opacity="0.1" height="153.6" width="153.6" x="-12.8" y="-12.8"/>
            </g>
        </mask>
        <mask id="g">
            <g filter="url(#a)">
                <rect fill-opacity="0.96" height="153.6" width="153.6" x="-12.8" y="-12.8"/>
            </g>
        </mask>
        <clipPath id="h">
            <path d="m 30 16 h 70 v 78 h -70 z m 0 0"/>
        </clipPath>
        <clipPath id="i">
            <path d="m 40 16 h 50 c 5.523438 0 10 4.476562 10 10 v 58 c 0 5.523438 -4.476562 10 -10 10 h -50 c -5.523438 0 -10 -4.476562 -10 -10 v -58 c 0 -5.523438 4.476562 -10 10 -10 z m 0 0"/>
        </clipPath>
        <mask id="j">
            <g filter="url(#a)">
                <rect fill-opacity="0.06" height="153.6" width="153.6" x="-12.8" y="-12.8"/>
            </g>
        </mask>
        <mask id="k">
            <g filter="url(#a)">
                <rect fill-opacity="0.1" height="153.6" width="153.6" x="-12.8" y="-12.8"/>
            </g>
        </mask>
        <clipPath id="l">
            <path d="m 22 20 h 72 v 82 h -72 z m 0 0"/>
        </clipPath>
        <clipPath id="m">
            <path d="m 32 20 h 52 c 5.523438 0 10 4.476562 10 10 v 62 c 0 5.523438 -4.476562 10 -10 10 h -52 c -5.523438 0 -10 -4.476562 -10 -10 v -62 c 0 -5.523438 4.476562 -10 10 -10 z m 0 0"/>
        </clipPath>
        <mask id="n">
            <g filter="url(#a)">
                <rect fill-opacity="0.16" height="153.6" width="153.6" x="-12.8" y="-12.8"/>
            </g>
        </mask>
        <mask id="o">
            <g filter="url(#a)">
                <rect fill-opacity="0.12" height="153.6" width="153.6" x="-12.8" y="-12.8"/>
            </g>
        </mask>
        <mask id="p">
            <g filter="url(#a)">
                <rect fill-opacity="0.92" height="153.6" width="153.6" x="-12.8" y="-12.8"/>
            </g>
        </mask>
        <mask id="q">
            <g filter="url(#a)">
                <rect fill-opacity="0.55" height="153.6" width="153.6" x="-12.8" y="-12.8"/>
            </g>
        </mask>
        <mask id="r">
            <g filter="url(#a)">
                <rect fill-opacity="0.35" height="153.6" width="153.6" x="-12.8" y="-12.8"/>
            </g>
        </mask>
        <mask id="s">
            <g filter="url(#a)">
                <rect fill-opacity="0.25" height="153.6" width="153.6" x="-12.8" y="-12.8"/>
            </g>
        </mask>
        <mask id="t">
            <g filter="url(#a)">
                <rect fill-opacity="0.9" height="221.184" width="221.184" x="-46.592" y="-46.592"/>
            </g>
        </mask>
        <clipPath id="u">
            <rect height="128" width="128"/>
        </clipPath>
        <g id="v" clip-path="url(#u)">
            <path d="m 44 14 h 50 c 5.523438 0 10 4.476562 10 10 v 58 c 0 5.523438 -4.476562 10 -10 10 h -50 c -5.523438 0 -10 -4.476562 -10 -10 v -58 c 0 -5.523438 4.476562 -10 10 -10 z m 0 0" fill="#c0bfbc"/>
        </g>
        <clipPath id="w">
            <path d="m 34 14 h 70 v 78 h -70 z m 0 0"/>
        </clipPath>
        <clipPath id="x">
            <path d="m 44 14 h 50 c 5.523438 0 10 4.476562 10 10 v 58 c 0 5.523438 -4.476562 10 -10 10 h -50 c -5.523438 0 -10 -4.476562 -10 -10 v -58 c 0 -5.523438 4.476562 -10 10 -10 z m 0 0"/>
        </clipPath>
        <mask id="y">
            <g filter="url(#a)">
                <rect fill-opacity="0.05" height="221.184" width="221.184" x="-46.592" y="-46.592"/>
            </g>
        </mask>
        <clipPath id="z">
            <rect height="128" width="128"/>
        </clipPath>
        <g id="A" clip-path="url(#z)">
            <path d="m 34 88 h 70 v 4 h -70 z m 0 0"/>
        </g>
        <mask id="B">
            <g filter="url(#a)">
                <rect fill-opacity="0.1" height="221.184" width="221.184" x="-46.592" y="-46.592"/>
            </g>
        </mask>
        <clipPath id="C">
            <rect height="128" width="128"/>
        </clipPath>
        <g id="D" clip-path="url(#C)">
            <path d="m 42 16 h 54 c 4.417969 0 8 3.582031 8 8 v 2 h -70 v -2 c 0 -4.417969 3.582031 -8 8 -8 z m 0 0" fill="#ffffff"/>
        </g>
        <mask id="E">
            <g filter="url(#a)">
                <rect fill-opacity="0.96" height="221.184" width="221.184" x="-46.592" y="-46.592"/>
            </g>
        </mask>
        <clipPath id="F">
            <rect height="128" width="128"/>
        </clipPath>
        <g id="G" clip-path="url(#F)">
            <path d="m 40 16 h 50 c 5.523438 0 10 4.476562 10 10 v 58 c 0 5.523438 -4.476562 10 -10 10 h -50 c -5.523438 0 -10 -4.476562 -10 -10 v -58 c 0 -5.523438 4.476562 -10 10 -10 z m 0 0" fill="#deddda"/>
        </g>
        <clipPath id="H">
            <path d="m 30 16 h 70 v 78 h -70 z m 0 0"/>
        </clipPath>
        <clipPath id="I">
            <path d="m 40 16 h 50 c 5.523438 0 10 4.476562 10 10 v 58 c 0 5.523438 -4.476562 10 -10 10 h -50 c -5.523438 0 -10 -4.476562 -10 -10 v -58 c 0 -5.523438 4.476562 -10 10 -10 z m 0 0"/>
        </clipPath>
        <mask id="J">
            <g filter="url(#a)">
                <rect fill-opacity="0.06" height="221.184" width="221.184" x="-46.592" y="-46.592"/>
            </g>
        </mask>
        <clipPath id="K">
            <rect height="128" width="128"/>
        </clipPath>
        <g id="L" clip-path="url(#K)">
            <path d="m 30 90 h 70 v 4 h -70 z m 0 0"/>
        </g>
        <mask id="M">
            <g filter="url(#a)">
                <rect fill-opacity="0.1" height="221.184" width="221.184" x="-46.592" y="-46.592"/>
            </g>
        </mask>
        <clipPath id="N">
            <rect height="128" width="128"/>
        </clipPath>
        <g id="O" clip-path="url(#N)">
            <path d="m 38 18 h 54 c 4.417969 0 8 3.582031 8 8 v 2 h -70 v -2 c 0 -4.417969 3.582031 -8 8 -8 z m 0 0" fill="#ffffff"/>
        </g>
        <clipPath id="P">
            <path d="m 22 20 h 72 v 82 h -72 z m 0 0"/>
        </clipPath>
        <clipPath id="Q">
            <path d="m 32 20 h 52 c 5.523438 0 10 4.476562 10 10 v 62 c 0 5.523438 -4.476562 10 -10 10 h -52 c -5.523438 0 -10 -4.476562 -10 -10 v -62 c 0 -5.523438 4.476562 -10 10 -10 z m 0 0"/>
        </clipPath>
        <mask id="R">
            <g filter="url(#a)">
                <rect fill-opacity="0.16" height="221.184" width="221.184" x="-46.592" y="-46.592"/>
            </g>
        </mask>
        <clipPath id="S">
            <rect height="128" width="128"/>
        </clipPath>
        <g id="T" clip-path="url(#S)">
            <path d="m 22 98 h 72 v 4 h -72 z m 0 0"/>
        </g>
        <mask id="U">
            <g filter="url(#a)">
                <rect fill-opacity="0.12" height="221.184" width="221.184" x="-46.592" y="-46.592"/>
            </g>
        </mask>
        <clipPath id="V">
            <rect height="128" width="128"/>
        </clipPath>
        <g id="W" clip-path="url(#V)">
            <path d="m 30 24 h 56 c 4.417969 0 8 3.582031 8 8 v 2 h -72 v -2 c 0 -4.417969 3.582031 -8 8 -8 z m 0 0" fill="#ffffff"/>
        </g>
        <mask id="X">
            <g filter="url(#a)">
                <rect fill-opacity="0.92" height="221.184" width="221.184" x="-46.592" y="-46.592"/>
            </g>
        </mask>
        <clipPath id="Y">
            <rect height="128" width="128"/>
        </clipPath>
        <g id="Z" clip-path="url(#Y)">
            <path d="m 38 44 h 40 c 4.417969 0 8 3.582031 8 8 v 18 c 0 4.417969 -3.582031 8 -8 8 h -10 l -10 10 l -2 -10 h -18 c -4.417969 0 -8 -3.582031 -8 -8 v -18 c 0 -4.417969 3.582031 -8 8 -8 z m 0 0" fill="#ffffff"/>
        </g>
        <mask id="aa">
            <g filter="url(#a)">
                <rect fill-opacity="0.55" height="221.184" width="221.184" x="-46.592" y="-46.592"/>
            </g>
        </mask>
        <clipPath id="ab">
            <rect height="128" width="128"/>
        </clipPath>
        <g id="ac" clip-path="url(#ab)">
            <path d="m 48 54 h 26 c 1.105469 0 2 0.894531 2 2 s -0.894531 2 -2 2 h -26 c -1.105469 0 -2 -0.894531 -2 -2 s 0.894531 -2 2 -2 z m 0 0" fill="#3584e4"/>
        </g>
        <mask id="ad">
            <g filter="url(#a)">
                <rect fill-opacity="0.35" height="221.184" width="221.184" x="-46.592" y="-46.592"/>
            </g>
        </mask>
        <clipPath id="ae">
            <rect height="128" width="128"/>
        </clipPath>
        <g id="af" clip-path="url(#ae)">
            <path d="m 48 64 h 18 c 1.105469 0 2 0.894531 2 2 s -0.894531 2 -2 2 h -18 c -1.105469 0 -2 -0.894531 -2 -2 s 0.894531 -2 2 -2 z m 0 0" fill="#3584e4"/>
        </g>
        <mask id="ag">
            <g filter="url(#a)">
                <rect fill-opacity="0.25" height="221.184" width="221.184" x="-46.592" y="-46.592"/>
            </g>
        </mask>
        <clipPath id="ah">
            <rect height="128" width="128"/>
        </clipPath>
        <g id="ai" clip-path="url(#ah)">
            <path d="m 48 74 h 12 c 1.105469 0 2 0.894531 2 2 s -0.894531 2 -2 2 h -12 c -1.105469 0 -2 -0.894531 -2 -2 s 0.894531 -2 2 -2 z m 0 0" fill="#3584e4"/>
        </g>
        <clipPath id="aj">
            <rect height="128" width="128"/>
        </clipPath>
        <clipPath id="ak">
            <rect height="128" width="128"/>
        </clipPath>
        <mask id="al">
            <g filter="url(#a)">
                <g clip-path="url(#ak)" filter="url(#a)">
                    <g clip-path="url(#aj)">
                        <g mask="url(#t)">
                            <use xlink:href="#v"/>
                        </g>
                        <g clip-path="url(#w)">
                            <g clip-path="url(#x)">
                                <g mask="url(#y)">
                                    <use xlink:href="#A"/>
                                </g>
                            </g>
                        </g>
                        <g mask="url(#B)">
                            <use xlink:href="#D"/>
                        </g>
                        <g mask="url(#E)">
                            <use xlink:href="#G"/>
                        </g>
                        <g clip-path="url(#H)">
                            <g clip-path="url(#I)">
                                <g mask="url(#J)">
                                    <use xlink:href="#L"/>
                                </g>
                            </g>
                        </g>
                        <g mask="url(#M)">
                            <use xlink:href="#O"/>
                        </g>
                        <path d="m 32 20 h 52 c 5.523438 0 10 4.476562 10 10 v 62 c 0 5.523438 -4.476562 10 -10 10 h -52 c -5.523438 0 -10 -4.476562 -10 -10 v -62 c 0 -5.523438 4.476562 -10 10 -10 z m 0 0" fill="#3584e4"/>
                        <g clip-path="url(#P)">
                            <g clip-path="url(#Q)">
                                <g mask="url(#R)">
                                    <use xlink:href="#T"/>
                                </g>
                            </g>
                        </g>
                        <g mask="url(#U)">
                            <use xlink:href="#W"/>
                        </g>
                        <path d="m 78 18 h 10 v 20 l -5 -4 l -5 4 z m 0 0" fill="#e5a50a"/>
                        <g mask="url(#X)">
                            <use xlink:href="#Z"/>
                        </g>
                        <g mask="url(#aa)">
                            <use xlink:href="#ac"/>
                        </g>
                        <g mask="url(#ad)">
                            <use xlink:href="#af"/>
                        </g>
                        <g mask="url(#ag)">
                            <use xlink:href="#ai"/>
                        </g>
                    </g>
                </g>
            </g>
        </mask>
        <mask id="am">
            <g filter="url(#a)">
                <rect fill-opacity="0.8" height="184.32" width="184.32" x="-28.16" y="-28.16"/>
            </g>
        </mask>
        <linearGradient id="an" gradientTransform="matrix(0 0.37 -0.98462 0 295.38501 -30.360001)" gradientUnits="userSpaceOnUse" x1="300" x2="428" y1="235" y2="235">
            <stop offset="0" stop-color="#f9f06b"/>
            <stop offset="1" stop-color="#f5c211"/>
        </linearGradient>
        <clipPath id="ao">
            <rect height="128" width="128"/>
        </clipPath>
        <clipPath id="ap">
            <rect height="128" width="128"/>
        </clipPath>
    </defs>
    <g mask="url(#b)">
        <use xlink:href="#v"/>
    </g>
    <g clip-path="url(#c)">
        <g clip-path="url(#d)">
            <g mask="url(#e)">
                <use xlink:href="#A"/>
            </g>
        </g>
    </g>
    <g mask="url(#f)">
        <use xlink:href="#D"/>
    </g>
    <g mask="url(#g)">
        <use xlink:href="#G"/>
    </g>
    <g clip-path="url(#h)">
        <g clip-path="url(#i)">
            <g mask="url(#j)">
                <use xlink:href="#L"/>
            </g>
        </g>
    </g>
    <g mask="url(#k)">
        <use xlink:href="#O"/>
    </g>
    <path d="m 32 20 h 52 c 5.523438 0 10 4.476562 10 10 v 62 c 0 5.523438 -4.476562 10 -10 10 h -52 c -5.523438 0 -10 -4.476562 -10 -10 v -62 c 0 -5.523438 4.476562 -10 10 -10 z m 0 0" fill="#3584e4"/>
    <g clip-path="url(#l)">
        <g clip-path="url(#m)">
            <g mask="url(#n)">
                <use xlink:href="#T"/>
            </g>
        </g>
    </g>
    <g mask="url(#o)">
        <use xlink:href="#W"/>
    </g>
    <path d="m 78 18 h 10 v 20 l -5 -4 l -5 4 z m 0 0" fill="#e5a50a"/>
    <g mask="url(#p)">
        <use xlink:href="#Z"/>
    </g>
    <g mask="url(#q)">
        <use xlink:href="#ac"/>
    </g>
    <g mask="url(#r)">
        <use xlink:href="#af"/>
    </g>
    <g mask="url(#s)">
        <use xlink:href="#ai"/>
    </g>
    <g mask="url(#al)">
        <g clip-path="url(#ap)">
            <g mask="url(#am)">
                <g clip-path="url(#ao)">
                    <path d="m 128 80.640625 v 47.359375 h -128 v -47.359375 z m 0 0" fill="url(#an)"/>
                    <path d="m 13.308594 80.640625 l 47.355468 47.359375 h 21.214844 l -47.359375 -47.359375 z m 42.421875 0 l 47.363281 47.359375 h 21.214844 l -47.363282 -47.359375 z m 42.429687 0 l 29.839844 29.839844 v -21.210938 l -8.628906 -8.628906 z m -98.160156 7.90625 v 21.214844 l 18.238281 18.238281 h 21.214844 z m 0 0"/>
                </g>
            </g>
        </g>
    </g>
    <path d="m 68 78 l -10 10 l -2 -10 z" fill="#ffffff" opacity="0.92"/>
</svg>
